<?xml version="1.0" encoding="utf-8"?><svg width="320" height="44" viewBox="0 0 320 44" fill="none" xmlns="http://www.w3.org/2000/svg">
<path d="M35.6615 15.0068V2.15723H0V34.0431H13.1732V15.3621C13.1732 15.1654 13.3318 15.0068 13.5285 15.0068H35.6615Z" fill="black"/>
<path d="M13.6934 21.0033L24.3284 34.0495H41.3025L30.3122 20.5464H13.9218C13.6871 20.5464 13.5475 20.8192 13.6934 21.0096" fill="black"/>
<path d="M230.721 24.4808V28.5165H227.631V15.6416H236.952V18.3892H230.721V22.0759H236.413V24.4808H230.721Z" fill="black"/>
<path d="M243.628 15.6353H240.537V28.5165H243.628V15.6353Z" fill="black"/>
<path d="M253.051 23.4338C252.384 22.1267 251.61 19.9375 251.052 18.129L250.404 18.2369C250.595 20.3372 250.811 23.8209 250.811 25.6865V28.5229H248.019V15.6416H252.118L254.523 19.9565C255.468 21.6761 256.325 24.2714 256.801 25.8578L257.467 25.7499C257.207 23.6876 256.997 20.5339 256.997 18.624V15.6416H259.745V28.5229H255.728L253.044 23.4338H253.051Z" fill="black"/>
<path d="M271.471 25.4517H266.661L265.843 28.5229H262.664L266.68 15.6416H271.573L275.59 28.5229H272.284L271.465 25.4517H271.471ZM267.201 23.4338H270.957L270.526 21.8221C270.183 20.553 269.86 19.1824 269.606 17.9387H268.597C268.318 19.2077 267.975 20.5339 267.632 21.8221L267.201 23.4338Z" fill="black"/>
<path d="M283.515 23.4338C282.849 22.1267 282.075 19.9375 281.516 18.129L280.869 18.2369C281.059 20.3372 281.275 23.8209 281.275 25.6865V28.5229H278.483V15.6416H282.582L284.987 19.9565C285.933 21.6761 286.789 24.2714 287.265 25.8578L287.932 25.7499C287.671 23.6876 287.462 20.5339 287.462 18.624V15.6416H290.21V28.5229H286.193L283.509 23.4338H283.515Z" fill="black"/>
<path d="M293.966 22.0568C293.966 17.5705 296.263 15.3369 300.191 15.3369C303.497 15.3369 305.324 16.7773 305.731 19.8422L302.812 20.4894C302.469 18.7698 301.758 17.9576 300.083 17.9576C297.786 17.9576 297.037 19.6772 297.037 22.0568C297.037 24.7409 297.811 26.2828 300.02 26.2828C301.885 26.2828 302.507 25.4643 302.919 23.7256L305.838 24.303C305.388 27.4377 303.522 28.8083 300.064 28.8083C296.073 28.8083 293.966 26.5113 293.966 22.0441" fill="black"/>
<path d="M309.595 15.6416H319.36V18.0656H312.704V20.921H318.802V23.1102H312.704V26.0926H319.341V28.5165H309.595V15.6416Z" fill="black"/>
<path d="M95.5244 13.5856C95.5244 4.07378 87.4657 1.40234 79.1214 1.40234H65.9736V34.7921H74.2735V25.477H77.4906L85.0925 34.7921H95.1881L86.939 24.5506C91.8885 23.1926 95.5308 20.039 95.5308 13.5856H95.5244ZM79.1278 17.7609H74.2735V9.31513H79.1278C84.9973 9.31513 87.2309 9.79738 87.2309 13.5856C87.2309 17.3739 84.9973 17.7609 79.1278 17.7609Z" fill="black"/>
<path d="M167.146 10.8188H158.896V34.792H167.146V10.8188Z" fill="black"/>
<path d="M163.072 0C160.255 0 157.977 1.94171 157.977 4.70833C157.977 7.47495 160.255 9.41666 163.072 9.41666C165.889 9.41666 168.117 7.52571 168.117 4.70833C168.117 1.89095 165.839 0 163.072 0Z" fill="black"/>
<path d="M115.767 12.672C114.218 11.1237 112.112 10.1655 109.364 10.1655C102.479 10.1655 96.8889 14.95 96.8889 22.5201C96.8889 30.0903 102.473 34.8747 109.364 34.8747C112.112 34.8747 114.218 33.9166 115.767 32.3683V34.7986H124.067V10.3369H115.767V12.672ZM110.868 27.0317C106.064 27.0317 105.189 24.2651 105.189 22.5201C105.189 20.7751 106.064 18.0085 110.868 18.0085C112.372 18.0085 114.168 18.3512 115.767 18.7827V26.3528C114.358 26.7399 112.708 27.0317 110.868 27.0317Z" fill="black"/>
<path d="M143.306 10.1655C140.558 10.1655 138.451 11.1237 136.903 12.672V10.3369H128.597V43.3396H136.897V32.3619C138.451 33.9102 140.558 34.8684 143.312 34.8684C150.197 34.8684 155.781 30.0839 155.781 22.5138C155.781 14.9437 150.197 10.1592 143.312 10.1592L143.306 10.1655ZM141.808 27.0254H141.802C139.962 27.0254 138.312 26.7335 136.909 26.3464H136.903V18.7763H136.909C138.509 18.3385 140.304 18.0022 141.802 18.0022H141.808C146.612 18.0022 147.487 20.7688 147.487 22.5138C147.487 24.2588 146.612 27.0254 141.808 27.0254Z" fill="black"/>
<path d="M189.12 0.437988V12.8878C187.572 11.3331 185.459 10.375 182.705 10.375C175.82 10.375 170.236 15.1594 170.236 22.7296C170.236 30.2997 175.82 35.0842 182.705 35.0842C185.459 35.0842 187.565 34.1197 189.12 32.5714V34.9129H197.42V0.437988H189.12ZM184.221 27.2412H184.215C179.411 27.2412 178.536 24.4746 178.536 22.7296C178.536 20.9846 179.411 18.218 184.215 18.218H184.221C186.068 18.218 187.718 18.5099 189.12 18.8969V26.4671C187.521 26.9049 185.725 27.2412 184.221 27.2412Z" fill="black"/>
</svg>
