<?xml version="1.0" encoding="UTF-8"?>
<svg width="381px" height="117px" viewBox="0 0 381 117" version="1.1" xmlns="http://www.w3.org/2000/svg" xmlns:xlink="http://www.w3.org/1999/xlink">
    <title>Group 14</title>
    <defs>
        <polygon id="path-1" points="0.8445 0.9451 63.5725 0.9451 63.5725 90 0.8445 90"></polygon>
        <polygon id="path-3" points="0 116.053 380.99 116.053 380.99 0 0 0"></polygon>
    </defs>
    <g id="Symbols" stroke="none" stroke-width="1" fill="none" fill-rule="evenodd">
        <g id="logo">
            <g id="Group-14">
                <path d="M139.7923,90.3983 C127.5683,89.7283 124.8833,84.0843 124.6133,73.6083 L124.6133,40.4303 L115.6143,40.4303 L115.6143,26.9983 L124.6133,26.9983 L124.6133,15.0433 L140.8663,5.9083 L140.8663,26.9983 L153.3573,26.9983 L153.3573,40.4303 L140.7323,40.4303 L140.7323,71.9963 C140.7323,75.0843 142.2093,76.4283 145.2993,76.5643 L152.6873,76.5643 L152.6873,90.3983 L139.7923,90.3983 Z" id="Fill-1" fill="#000000"></path>
                <g id="Group-5" transform="translate(156.000000, 26.053000)">
                    <mask id="mask-2" fill="white">
                        <use xlink:href="#path-1"></use>
                    </mask>
                    <g id="Clip-4"></g>
                    <path d="M11.0525,75.6271 C18.7075,75.6271 20.7235,74.2861 24.7535,63.8071 L0.8445,0.9451 L18.3045,0.9451 L33.0805,45.1381 L46.9165,0.9451 L63.5725,0.9451 L39.3935,70.2571 C34.0225,84.2241 27.5735,90.0001 12.2615,90.0001 L4.4705,90.0001 L4.4705,75.6271 L11.0525,75.6271 Z" id="Fill-3" fill="#000000" mask="url(#mask-2)"></path>
                </g>
                <mask id="mask-4" fill="white">
                    <use xlink:href="#path-3"></use>
                </mask>
                <g id="Clip-7"></g>
                <polygon id="Fill-6" fill="#000000" mask="url(#mask-4)" points="222.493 90.398 239.283 90.398 239.283 0 222.493 0"></polygon>
                <polygon id="Fill-8" fill="#000000" mask="url(#mask-4)" points="243.892 90.398 260.683 90.398 260.683 0 243.892 0"></polygon>
                <polygon id="Fill-9" fill="#000000" mask="url(#mask-4)" points="34.1712 49.8661 34.1712 90.3981 51.2312 90.3981 51.2312 39.8391"></polygon>
                <path d="M91.9739,25.6547 C82.9739,25.6547 76.7949,29.9547 73.4359,37.3427 L73.4359,26.9057 L56.7819,36.6957 L56.7819,90.3987 L73.4359,90.3987 L73.4359,58.1617 C73.4359,46.3417 78.2729,39.8917 86.1979,39.8917 C93.9889,39.8917 97.3469,44.4597 97.3469,53.3267 L97.3469,90.3987 L114.0019,90.3987 L114.0019,52.3857 C114.0019,34.9247 105.8079,25.6547 91.9739,25.6547" id="Fill-10" fill="#000000" mask="url(#mask-4)"></path>
                <path d="M264.9109,65.0116 L264.9109,26.9986 L281.5679,26.9986 L281.5679,64.0706 C281.5679,72.5346 285.5969,77.5016 293.1189,77.5016 C301.8499,77.5016 305.4759,70.1166 305.4759,59.2356 L305.4759,26.9986 L322.1319,26.9986 L322.1319,90.3986 L305.4759,90.3986 L305.4759,81.3986 C302.1179,87.9806 296.3419,91.6076 288.1499,91.6076 C273.7769,91.6076 264.9109,81.3986 264.9109,65.0116" id="Fill-11" fill="#ED2524" mask="url(#mask-4)"></path>
                <path d="M326.3225,78.8461 L339.4855,71.3261 C342.9775,76.2931 348.8875,79.2491 355.4695,79.2491 C361.3795,79.2491 365.0075,76.6961 365.0075,72.5341 C365.0075,68.0991 358.0225,67.2941 348.7535,65.2791 C337.7395,62.9971 326.7255,58.6971 326.7255,46.0711 C326.7255,34.5221 337.7395,25.5191 351.9765,25.5191 C364.6045,25.5191 374.2745,31.1631 380.4535,39.4891 L367.2895,46.4741 C363.7975,41.2361 358.4255,38.5511 352.1125,38.5511 C346.2005,38.5511 342.4405,41.1011 342.4405,44.8621 C342.4405,49.1621 346.0675,49.8331 357.0815,51.9831 C368.4985,54.1331 380.9895,58.4291 380.9895,71.3261 C380.9895,83.2781 369.9755,92.2781 355.0665,92.2781 C342.0375,92.2781 332.2325,86.7721 326.3225,78.8461" id="Fill-12" fill="#ED2524" mask="url(#mask-4)"></path>
                <polygon id="Fill-13" fill="#ED2524" mask="url(#mask-4)" points="73.4856 21.2626 23.8786 50.4196 38.9436 28.7336 -0.0004 21.0596"></polygon>
            </g>
        </g>
    </g>
</svg>